<svg width="50" height="50" viewBox="0 0 50 50" fill="none" xmlns="http://www.w3.org/2000/svg">
<path d="M49.4204 35.7739C47.4768 35.3821 46.0114 36.7861 44.1763 34.694C43.6967 34.1477 43.0041 34.4557 42.7844 35.121C41.2093 39.8962 37.933 37.5892 36.4317 34.2445C36.1409 33.5971 35.3174 33.6532 35.0146 34.2445C33.977 37.1933 31.9789 37.5565 29.0199 35.334C28.5499 34.8565 27.779 35.0171 27.6023 35.7687C26.3141 41.2505 21.8125 39.7445 20.4256 35.24C20.3558 35.0131 20.2056 34.903 20.0496 34.8833C19.734 34.4245 19.0194 34.287 18.7731 34.9305C16.9991 39.5629 13.7062 38.8538 11.6567 34.9366C11.2868 34.2297 10.523 34.4748 10.2804 35.1456C8.5568 39.9113 3.5345 39.8018 3.62393 34.0731C3.63375 33.4386 2.81612 33.3141 2.67786 33.9245C1.0601 41.064 8.58016 42.3021 11.1851 37.0614C13.8758 40.6157 17.9106 41.3451 19.8349 36.5616C21.4765 41.8079 26.8393 42.8398 28.8326 37.6197C31.3638 39.5842 33.775 39.2756 35.6772 36.4846C37.9972 40.3324 42.131 41.7499 43.9661 37.0019C45.6502 38.3257 46.7674 37.3996 49.2042 37.6265C50.1136 37.7116 50.3214 35.9558 49.4204 35.7739Z" fill="#00B2A0"/>
<path d="M46.3727 43.4668C45.6102 44.922 45.3467 46.226 43.7135 46.9373C41.7033 47.8135 39.7023 45.7229 38.7117 44.0088C38.3699 43.4172 37.5408 43.3034 37.2216 44.0088C35.8222 47.1007 32.7231 46.3457 31.4007 43.3617C31.0757 42.6276 29.9762 42.7586 29.8411 43.5984C29.0981 48.2241 25.7617 48.7137 23.5272 45.361C23.7711 44.4583 22.4989 43.8438 22.152 44.7274C20.2763 49.5069 16.6143 48.973 14.4889 44.7077C14.12 43.9675 13.2937 44.2271 13.0553 44.9253C11.328 49.9888 8.63757 47.5801 7.12783 44.0948C6.83379 43.4156 5.99519 43.6508 5.81792 44.2936C4.99285 47.2872 3.63358 47.8461 1.34362 48.6206C0.912379 48.7667 0.978989 49.6361 1.45322 49.5627C4.07703 49.1564 5.51008 48.6141 6.58247 46.3441C8.78565 50.3409 11.8614 51.1572 13.9253 46.9518C16.6013 50.8434 20.9002 51.287 23.0302 46.657C25.396 50.3957 29.3637 50.2117 30.9525 46.1376C33.0023 48.9464 35.9857 49.3411 38.0498 46.1977C41.1216 49.7856 47.4039 50.5887 47.6279 43.8626C47.6558 43.0605 46.7099 42.8228 46.3727 43.4668Z" fill="#00B2A0"/>
<path d="M14.1125 7.50507C13.5982 7.67895 13.3954 8.12751 13.4111 8.5804C9.76691 9.20593 7.40769 13.383 7.12612 17.5845C6.74106 23.3329 10.9441 26.7097 15.5012 26.2809C20.1608 25.8428 23.1919 21.0025 23.055 15.8007C22.918 10.605 18.6813 5.95773 14.1125 7.50507ZM14.8712 23.653C11.5266 23.9717 9.363 21.3478 9.42696 17.5845C9.4941 13.6401 12.0956 11.0391 15.1114 9.99917C15.1666 9.98006 15.2064 9.94738 15.2512 9.9184C18.1911 10.4511 20.4145 11.7506 20.7268 15.8001C21.0511 20.0006 18.3962 23.3163 14.8712 23.653Z" fill="#00B2A0"/>
<path d="M9.87138 7.33132C9.32284 6.63796 8.71512 6.02877 8.09281 5.4276C7.4758 4.83135 6.82138 3.67771 5.95146 3.77205C5.49077 3.822 5.17868 4.16143 5.14657 4.70711C5.08553 5.74267 5.96447 6.25136 6.60377 6.77947C7.33462 7.3828 8.09387 7.92263 8.77218 8.60859C9.5248 9.37008 10.5547 8.19485 9.87138 7.33132Z" fill="#00B2A0"/>
<path d="M4.82731 10.4497C5.11975 10.4907 4.86127 10.4414 4.78405 10.4134C4.66542 10.3699 4.54919 10.3178 4.43322 10.266C4.30186 10.2077 4.17182 10.1448 4.04205 10.0819C4.03329 10.0776 4.02851 10.0755 4.01551 10.0687C3.89184 9.79276 3.67928 9.57048 3.40567 9.4709C2.91711 9.29239 2.17404 8.86602 1.64594 9.05871C1.34739 9.16784 1.03451 9.45486 0.976388 9.83653C0.976388 9.83653 0.976122 9.83808 0.976122 9.83869C0.920923 10.2003 0.944807 10.6708 1.22266 10.9223C1.37738 11.0617 1.55836 11.1604 1.74705 11.2454C1.59419 11.2448 1.71759 11.2532 1.85585 11.2905C1.95378 11.3296 2.05038 11.3697 2.15122 11.4008C2.39431 11.4958 2.63713 11.5923 2.87889 11.6906C3.01768 11.7477 3.16072 11.7526 3.29899 11.7236C3.79604 11.8771 4.34034 12.051 4.82757 12.0165C5.71341 11.9536 5.67546 10.569 4.82731 10.4497Z" fill="#00B2A0"/>
<path d="M3.30907 19.2588C2.93701 19.6211 2.50285 19.905 2.07983 20.1772C1.86116 20.3181 1.63506 20.4639 1.40073 20.5666C1.26034 20.628 1.03689 20.5765 1.34579 20.6421C1.1924 20.6098 1.04698 20.6064 0.894383 20.5873C-0.391911 20.426 -0.274878 23.1242 1.14304 22.7222C1.66531 22.5742 2.19899 21.9952 2.64297 21.6244C3.15807 21.1943 3.67237 20.7241 4.09698 20.1741C4.58236 19.5458 3.85602 18.7258 3.30907 19.2588Z" fill="#00B2A0"/>
<path d="M6.58865 24.6062C6.15289 25.3831 5.75562 26.1883 5.3411 26.9804C4.89181 27.8383 4.1307 28.4781 4.03092 29.5047C3.96723 30.1601 4.58503 30.4847 5.04122 30.3987C5.97403 30.223 6.42915 28.8437 6.77017 27.9503C7.12206 27.0285 7.33834 26.0616 7.62018 25.1109C7.83673 24.3787 6.92382 24.0081 6.58865 24.6062Z" fill="#00B2A0"/>
<path d="M15.4017 27.3986C15.3099 26.8502 14.5798 26.8764 14.4729 27.3986C14.1921 28.7715 13.8633 30.1326 13.5876 31.5067C13.5209 31.8384 13.5783 32.2222 13.8046 32.4609C13.7675 32.4032 13.7717 32.4146 13.8171 32.4945C14.087 33.0068 14.6541 32.9483 14.9338 32.4945C14.6783 32.9088 15.1148 32.2938 15.1305 32.2623C15.2334 32.0579 15.2422 31.8433 15.2531 31.614C15.2759 31.1392 15.3239 30.6656 15.3629 30.1924C15.4396 29.2697 15.5556 28.3171 15.4017 27.3986Z" fill="#00B2A0"/>
<path d="M25.0969 28.2096C24.4294 27.0973 23.3695 26.3833 22.7629 25.2346C22.3475 24.4478 21.3964 25.1332 21.7173 25.9446C21.9954 26.6478 22.4203 27.2317 22.8589 27.8073C23.0683 28.082 23.2827 28.3502 23.4669 28.6487C23.7182 29.0559 23.8215 29.5134 24.3114 29.5927C24.5932 29.6383 24.9148 29.5735 25.0571 29.2397C25.0703 29.2088 25.0836 29.178 25.0966 29.1469C25.2182 28.8626 25.2649 28.4899 25.0969 28.2096Z" fill="#00B2A0"/>
<path d="M28.981 19.9104C27.8576 19.9792 26.734 20.0452 25.6107 20.1102C24.5998 20.1688 24.5998 21.8737 25.6107 21.9325C26.7343 21.9979 27.8576 22.0639 28.981 22.132C30.2145 22.2075 30.2145 19.8355 28.981 19.9104Z" fill="#00B2A0"/>
<path d="M28.9813 7.09895C27.9623 7.07429 27.1386 8.49614 26.5279 9.32207C25.8716 10.2093 25.295 11.1709 24.6259 12.0465C24.1148 12.7155 24.9027 13.6419 25.4725 13.0299C26.1471 12.3048 26.7596 11.5079 27.4071 10.751C27.7728 10.3237 28.1512 9.89334 28.5663 9.53047C29.0766 9.08499 29.4776 8.9404 29.7045 8.20141C29.873 7.65296 29.4394 7.11005 28.9813 7.09895Z" fill="#00B2A0"/>
<path d="M24.086 1.2963C23.4828 1.74579 23.0804 2.47583 22.6659 3.14329C22.1827 3.92143 21.7233 4.70327 21.1644 5.41296C20.5315 6.21669 21.516 7.3731 22.1957 6.611C22.7232 6.01907 23.1903 5.37381 23.6481 4.70912C24.1396 3.99573 24.7733 3.34245 25.1777 2.56431C25.5838 1.78371 24.7664 0.789458 24.086 1.2963Z" fill="#00B2A0"/>
<path d="M16.5478 0.226597C16.2538 -0.0755323 15.869 -0.0755323 15.5749 0.226597C14.9977 0.819757 15.2639 1.85532 15.312 2.64486C15.3672 3.55064 15.4263 4.45548 15.4972 5.36002C15.5633 6.20352 16.5595 6.20352 16.6256 5.36002C16.6964 4.45517 16.7556 3.55094 16.8108 2.64486C16.8588 1.85563 17.125 0.819449 16.5478 0.226597Z" fill="#00B2A0"/>
</svg>
